<svg height="1024" width="1024" stroke="#fff" stroke-width="41" paint-order="stroke fill"><path fill="#8974b2" d="M937.14 497.468L533.748 95.984C517.612 79.924 495.202 70.11 470.55 70.11H156.801c-49.303 0-89.643 40.148-89.643 89.219v312.265c0 24.535 9.861 46.84 26.445 63.345l403.392 401.484c16.136 16.059 38.546 25.873 63.198 25.873s47.062-9.814 63.198-26.319L937.14 623.712c16.584-16.059 26.445-38.364 26.445-62.899s-10.309-47.286-26.445-63.345zM224.033 293.157c-37.202 0-67.232-29.888-67.232-66.914s30.03-66.914 67.232-66.914 67.232 29.888 67.232 66.914-30.03 66.914-67.232 66.914z"/><path fill="#74b29e" d="M228.711 936.229H100.507V808.025l378.118-378.118 128.204 128.204zm330.532-586.941a34.05 34.05 0 0 1 48.205 0l80 80a34.05 34.05 0 0 1 0 48.205l-62.564 62.564L496.68 411.852z"/></svg>
